# File created by Blade
# Date/Time:  Thu Sep 25 19:43:58 2014
# Frame Rate: 120.000 fps
#------------------------------------------------------
:FULLY-SPECIFIED
:DEGREES
1178
root -4.925513 32.468282 -4.562598 20.539254 2.235126 3.074590
Spine -3.903003 11.561106 3.100788
Head -31.116932 0.208734 3.434095
LeftShoulder -9.359016 18.372792 11.535454
LeftArm 17.273150 25.234329 -76.591118
LeftForeArm 9.097417 -0.000000 26.738368
LeftHand -21.504318 -0.000000 0.583089
LeftHandThumb1 -26.253704 0.000000 33.147579
RightShoulder -14.459249 12.517664 -22.261139
RightArm -10.174916 -33.880697 88.873378
RightForeArm -4.840959 -0.000000 21.174537
RightHand -1.864852 0.000000 9.015309
RightHandThumb1 -24.326973 -0.000000 -32.862282
LeftUpLeg -26.624228 -0.159730 0.810944
LeftLeg 22.233934 -0.000000 -0.000000
LeftFoot -18.564226 4.700985 -21.641791
LeftToeBase 7.928540 -0.000000 -0.000000
RightUpLeg -24.647153 -9.680894 -18.739126
RightLeg 24.696208 -0.000000 -0.000000
RightFoot 0.082754 -16.904818 12.642053
RightToeBase -7.647000 -0.000000 0.000000
1179
root -4.784419 32.428156 -4.545549 20.396472 1.828250 2.831779
Spine -4.041711 11.418147 2.974982
Head -31.149531 0.355854 4.131369
LeftShoulder -9.321036 18.281720 11.725926
LeftArm 17.839904 25.388022 -75.945895
LeftForeArm 8.908959 -0.000000 26.012997
LeftHand -21.210865 -0.000000 -0.058482
LeftHandThumb1 -26.253704 0.000000 33.147579
RightShoulder -14.587202 12.438431 -21.985961
RightArm -9.883223 -32.888267 88.744905
RightForeArm -5.305576 -0.000000 20.944498
RightHand -1.993492 0.000000 8.932837
RightHandThumb1 -24.326973 -0.000000 -32.862282
LeftUpLeg -26.324115 -0.593993 0.896924
LeftLeg 22.120893 -0.000000 -0.000000
LeftFoot -19.461158 5.415039 -21.459733
LeftToeBase 7.547263 -0.000000 -0.000000
RightUpLeg -24.944520 -9.280983 -18.846836
RightLeg 25.177055 -0.000000 -0.000000
RightFoot 0.402181 -17.086850 12.320368
RightToeBase -7.510751 -0.000000 0.000000
1180
root -4.646692 32.400723 -4.545898 20.321672 1.483720 2.682768
Spine -4.179317 11.222499 2.747073
Head -31.309795 0.455718 4.860772
LeftShoulder -9.199115 18.058940 11.949019
LeftArm 18.295291 25.375273 -75.352382
LeftForeArm 8.883450 -0.000000 25.261359
LeftHand -21.065169 -0.000000 -0.938978
LeftHandThumb1 -26.253704 0.000000 33.147579
RightShoulder -14.669807 12.387012 -21.726463
RightArm -9.702450 -31.565485 88.724057
RightForeArm -6.159469 -0.000000 20.673711
RightHand -2.222460 -0.000000 7.852422
RightHandThumb1 -24.326973 -0.000000 -32.862282
LeftUpLeg -26.230606 -0.930896 0.861093
LeftLeg 22.227733 -0.000000 -0.000000
LeftFoot -20.071113 5.876523 -21.295972
LeftToeBase 7.933715 -0.000000 -0.000000
RightUpLeg -25.379356 -9.180179 -18.921597
RightLeg 25.735879 -0.000000 -0.000000
RightFoot 0.905553 -17.227654 11.546116
RightToeBase -7.248507 -0.000000 0.000000
1181
root -4.509682 32.382057 -4.551722 20.243783 1.166111 2.615051
Spine -4.260772 11.021293 2.429563
Head -31.577260 0.523598 5.528855
LeftShoulder -9.037056 17.973650 12.175342
LeftArm 18.969738 25.292651 -74.626339
LeftForeArm 8.790750 -0.000000 24.461714
LeftHand -21.020907 -0.000000 -1.925140
LeftHandThumb1 -26.253704 0.000000 33.147579
RightShoulder -14.779419 12.328164 -21.471426
RightArm -9.444947 -30.425129 88.650617
RightForeArm -6.668943 -0.000000 20.289953
RightHand -2.411106 -0.000000 7.281040
RightHandThumb1 -24.326973 -0.000000 -32.862282
LeftUpLeg -26.200383 -1.121732 0.689492
LeftLeg 22.410956 -0.000000 -0.000000
LeftFoot -20.487458 6.273998 -21.071519
LeftToeBase 8.017083 -0.000000 -0.000000
RightUpLeg -25.806693 -8.997527 -19.066611
RightLeg 26.291031 -0.000000 -0.000000
RightFoot 1.466236 -17.630836 10.711827
RightToeBase -7.065399 -0.000000 0.000000
1182
root -4.377996 32.372508 -4.555692 20.153229 0.921171 2.608244
Spine -4.314704 10.756559 2.065927
Head -31.895621 0.568032 6.165529
LeftShoulder -8.840354 17.875921 12.453891
LeftArm 19.641674 25.111455 -73.907108
LeftForeArm 8.760996 -0.000000 23.579875
LeftHand -20.967363 -0.000000 -3.166889
LeftHandThumb1 -26.253704 0.000000 33.147579
RightShoulder -14.853842 12.278836 -21.232521
RightArm -9.265456 -28.967458 88.635507
RightForeArm -7.700561 0.000000 19.910028
RightHand -2.893233 -0.000000 6.598272
RightHandThumb1 -24.326973 -0.000000 -32.862282
LeftUpLeg -26.210153 -1.185034 0.418955
LeftLeg 22.649809 -0.000000 -0.000000
LeftFoot -20.692950 6.678542 -20.770134
LeftToeBase 7.698710 -0.000000 -0.000000
RightUpLeg -26.178993 -8.736014 -19.243610
RightLeg 26.817968 -0.000000 -0.000000
RightFoot 2.026816 -18.291435 9.835731
RightToeBase -6.803851 -0.000000 0.000000
1183
root -4.256619 32.372825 -4.561649 20.041616 0.818308 2.652807
Spine -4.333512 10.332399 1.681243
Head -32.217922 0.664391 6.792126
LeftShoulder -8.683934 17.872321 12.790295
LeftArm 20.368601 24.889075 -73.190667
LeftForeArm 8.693307 0.000000 22.762378
LeftHand -21.085289 -0.000000 -4.409130
LeftHandThumb1 -26.253704 0.000000 33.147579
RightShoulder -14.841157 12.234379 -21.017648
RightArm -9.192247 -27.438579 88.657343
RightForeArm -8.568054 -0.000000 19.544740
RightHand -2.909014 0.000000 6.014232
RightHandThumb1 -24.326973 -0.000000 -32.862282
LeftUpLeg -26.231256 -1.152971 0.093697
LeftLeg 22.917176 -0.000000 -0.000000
LeftFoot -20.675497 6.802959 -20.429160
LeftToeBase 7.830703 -0.000000 -0.000000
RightUpLeg -26.462826 -8.643968 -19.354872
RightLeg 27.290641 -0.000000 -0.000000
RightFoot 2.616881 -19.047978 8.908830
RightToeBase -6.487913 -0.000000 0.000000
1184
root -4.142058 32.383043 -4.561409 19.938351 0.727888 2.650369
Spine -4.388174 9.942172 1.381109
Head -32.483084 0.690472 7.277414
LeftShoulder -8.485095 17.852900 13.155619
LeftArm 20.957147 24.681186 -72.506615
LeftForeArm 8.616734 -0.000000 21.996679
LeftHand -21.121603 -0.000000 -5.488214
LeftHandThumb1 -26.253704 0.000000 33.147579
RightShoulder -14.851707 12.228686 -20.890385
RightArm -9.217577 -25.990019 88.661463
RightForeArm -9.532739 0.000000 19.116563
RightHand -2.874477 -0.000000 5.709444
RightHandThumb1 -24.326973 -0.000000 -32.862282
LeftUpLeg -26.192967 -0.978789 -0.215786
LeftLeg 23.058969 -0.000000 -0.000000
LeftFoot -20.589942 6.959619 -20.028067
LeftToeBase 7.494421 -0.000000 -0.000000
RightUpLeg -26.706124 -8.481646 -19.376840
RightLeg 27.658022 -0.000000 -0.000000
RightFoot 3.265043 -20.029427 7.860640
RightToeBase -6.021369 -0.000000 0.000000
1185
root -4.034669 32.402118 -4.553072 19.772962 0.670884 2.617455
Spine -4.394329 9.528523 1.171429
Head -32.687064 0.659063 7.652613
LeftShoulder -8.329351 17.903449 13.500384
LeftArm 21.449762 24.355641 -71.876656
LeftForeArm 8.729979 -0.000000 21.408187
LeftHand -21.153188 -0.000000 -6.281596
LeftHandThumb1 -26.253704 0.000000 33.147579
RightShoulder -14.838251 12.282355 -20.848463
RightArm -9.342285 -24.783241 88.724376
RightForeArm -10.111211 -0.000000 18.675936
RightHand -2.836447 -0.000000 5.384466
RightHandThumb1 -24.326973 -0.000000 -32.862282
LeftUpLeg -26.033454 -0.716950 -0.488404
LeftLeg 23.094116 -0.000000 -0.000000
LeftFoot -20.391955 7.001446 -19.590517
LeftToeBase 7.301511 -0.000000 -0.000000
RightUpLeg -26.828244 -8.299002 -19.317135
RightLeg 27.938748 -0.000000 -0.000000
RightFoot 3.852017 -21.101909 6.775997
RightToeBase -5.171563 -0.000000 0.000000
1186
root -3.937456 32.430910 -4.542730 19.602586 0.689940 2.531136
Spine -4.408614 9.109032 1.061186
Head -32.825503 0.579263 7.947305
LeftShoulder -8.177191 17.914164 13.869302
LeftArm 21.890287 23.964679 -71.290394
LeftForeArm 8.786378 0.000000 20.759910
LeftHand -21.126748 -0.000000 -7.397548
LeftHandThumb1 -26.253704 0.000000 33.147579
RightShoulder -14.835716 12.354090 -20.832764
RightArm -9.522217 -23.675154 88.682473
RightForeArm -10.908465 0.000000 18.253660
RightHand -3.074996 -0.000000 5.115340
RightHandThumb1 -24.326973 -0.000000 -32.862282
LeftUpLeg -25.789827 -0.463288 -0.664176
LeftLeg 22.948558 -0.000000 -0.000000
LeftFoot -20.106968 6.904314 -19.221015
LeftToeBase 7.533956 -0.000000 -0.000000
RightUpLeg -26.881342 -8.186787 -19.098395
RightLeg 28.104257 -0.000000 -0.000000
RightFoot 4.607315 -22.337132 5.188243
RightToeBase -3.972225 -0.000000 0.000000
1187
root -3.846820 32.465337 -4.520234 19.341762 0.706192 2.363603
Spine -4.350662 8.754202 1.085086
Head -32.898864 0.473886 8.154652
LeftShoulder -8.074094 17.985715 14.174389
LeftArm 22.343056 23.543908 -70.633948
LeftForeArm 8.706950 -0.000000 20.208116
LeftHand -21.123418 -0.000000 -8.377492
LeftHandThumb1 -26.253704 0.000000 33.147579
RightShoulder -14.811017 12.427201 -20.858403
RightArm -9.744476 -22.663798 88.540827
RightForeArm -11.799590 -0.000000 17.834494
RightHand -3.141745 0.000000 5.026986
RightHandThumb1 -24.326973 -0.000000 -32.862282
LeftUpLeg -25.403509 0.049015 -0.806711
LeftLeg 22.733578 -0.000000 -0.000000
LeftFoot -19.729050 6.633175 -18.792131
LeftToeBase 7.263849 -0.000000 -0.000000
RightUpLeg -26.802394 -8.045578 -18.739852
RightLeg 28.186131 -0.000000 -0.000000
RightFoot 5.253596 -23.556701 3.534104
RightToeBase -2.730857 -0.000000 0.000000
1188
root -3.751251 32.505623 -4.485297 19.034412 0.734010 2.180593
Spine -4.314722 8.399143 1.234816
Head -32.783344 0.319256 8.152900
LeftShoulder -8.008239 18.047706 14.344006
LeftArm 22.686554 23.095866 -69.932956
LeftForeArm 8.438780 -0.000000 19.704137
LeftHand -21.300463 -0.000000 -8.997694
LeftHandThumb1 -26.253704 0.000000 33.147579
RightShoulder -14.782727 12.539249 -21.000113
RightArm -9.880988 -21.219763 88.239394
RightForeArm -13.359172 -0.000000 17.113124
RightHand -2.979693 0.000000 5.338855
RightHandThumb1 -24.326973 -0.000000 -32.862282
LeftUpLeg -24.890327 0.612379 -0.954038
LeftLeg 22.389989 -0.000000 -0.000000
LeftFoot -19.312227 6.356877 -18.211876
LeftToeBase 7.067688 -0.000000 -0.000000
RightUpLeg -26.620037 -8.080025 -18.280307
RightLeg 28.181059 -0.000000 -0.000000
RightFoot 5.745079 -24.612084 2.033579
RightToeBase -2.039908 -0.000000 0.000000
1189
root -3.667904 32.552747 -4.450659 18.751803 0.762842 1.897433
Spine -4.323262 8.133518 1.485028
Head -32.634989 0.143445 8.104208
LeftShoulder -7.966353 17.980735 14.515020
LeftArm 22.865364 22.619912 -69.273548
LeftForeArm 8.186782 -0.000000 19.196838
LeftHand -21.377845 0.000000 -9.959637
LeftHandThumb1 -26.253704 0.000000 33.147579
RightShoulder -14.798208 12.594038 -21.154538
RightArm -10.054619 -20.162871 87.847479
RightForeArm -14.659150 -0.000000 16.563174
RightHand -2.975158 -0.000000 6.087350
RightHandThumb1 -24.326973 -0.000000 -32.862282
LeftUpLeg -24.330050 1.217830 -0.976429
LeftLeg 21.888350 -0.000000 -0.000000
LeftFoot -18.849109 6.040840 -17.748088
LeftToeBase 7.005087 -0.000000 -0.000000
RightUpLeg -26.444680 -8.212533 -17.628012
RightLeg 28.105863 -0.000000 -0.000000
RightFoot 5.690206 -25.638334 1.373742
RightToeBase -1.684157 -0.000000 0.000000
